<svg width="196" height="185" viewBox="0 0 196 185" fill="none" xmlns="http://www.w3.org/2000/svg">
<g clip-path="url(#clip0_347_544)">
<path fill-rule="evenodd" clip-rule="evenodd" d="M0.764148 84.2744C0.225219 84.1314 -0.10394 83.588 0.0297874 83.0446C0.163228 82.5297 0.709045 82.1865 1.24797 82.3295C6.6008 83.3592 11.3619 85.0753 15.4899 87.6209C18.4733 89.4229 21.1119 91.6825 23.3764 94.3425C25.5436 96.9167 27.3865 99.8629 28.7858 103.238C30.3526 106.985 31.3447 111.275 31.8813 116.052C34.8098 115.623 37.4476 116.109 39.6917 117.854C41.7111 119.427 43.4562 122.03 44.6835 126.091C44.8712 126.606 44.5992 127.178 44.0766 127.378C43.554 127.55 42.9778 127.293 42.7901 126.778C41.4144 123.488 39.8143 121.4 37.9969 120.228C35.8704 118.883 33.4501 119.084 30.8178 120.113C30.2783 120.285 29.6851 120.228 29.2047 119.913C28.7244 119.627 28.4081 119.112 28.3455 118.54C27.6278 113.392 26.2739 108.93 24.5693 105.011C23.2918 102.036 21.8061 99.4052 20.0111 97.0312C18.1263 94.5714 15.9723 92.3975 13.4837 90.5669C9.85731 87.8497 5.63544 85.7617 0.764148 84.2744Z" fill="black"/>
<path fill-rule="evenodd" clip-rule="evenodd" d="M103.179 84.9272C103.417 84.441 104.02 84.2406 104.522 84.4694C105.021 84.6982 105.234 85.2989 104.993 85.8138C104.993 85.8138 102.522 92.2207 98.9805 100.544C98.1856 102.403 97.3161 104.377 96.4064 106.35C95.8239 107.637 95.2327 108.925 94.5957 110.183C93.0001 113.386 91.2812 116.561 89.6196 119.565C86.5175 125.171 83.5445 130.119 81.5988 133.351C81.3406 133.837 80.7322 134.009 80.2415 133.751C79.7508 133.494 79.5614 132.893 79.8168 132.407C81.3578 129.003 83.5359 123.683 86.1043 117.82C87.4817 114.702 88.9366 111.384 90.469 108.181C91.0831 106.894 91.7346 105.635 92.3774 104.405C93.3846 102.46 94.3833 100.573 95.3619 98.7994C99.7037 90.8765 103.179 84.9272 103.179 84.9272Z" fill="black"/>
<path fill-rule="evenodd" clip-rule="evenodd" d="M82.9983 103.606C83.1561 103.807 83.4517 104.15 83.7243 104.407C85.4605 106.066 88.6516 108.211 91.8886 109.784C94.3852 111.014 96.8818 111.987 98.6754 111.872C98.6983 111.872 98.7185 111.844 98.7385 111.844C99.5392 111.415 101.12 110.414 103.244 108.841C111.385 102.806 127.014 88.5043 137.115 64.507C143.905 48.3752 148.249 27.9244 146.129 2.61136C146.074 2.06791 146.479 1.58173 147.032 1.52452C147.583 1.46732 148.077 1.86792 148.129 2.41136C150.961 28.2107 147.093 49.2618 140.495 65.8798C130.512 91.0213 114.358 106.095 105.967 112.444C103.597 114.246 101.806 115.362 100.908 115.848C100.205 116.22 99.7142 116.334 99.5392 116.363C98.1961 116.535 96.526 116.335 94.7095 115.82C91.8857 114.99 88.6315 113.388 85.8307 111.644C83.225 110.013 81.0125 108.24 79.833 106.924C78.7311 105.666 78.3924 104.493 78.447 103.749C79.6551 87.9323 86.683 64.8502 99.2838 43.9133C110.26 25.665 125.444 9.04694 144.401 0.0944062C144.9 -0.134413 145.503 0.0659714 145.747 0.552211C145.991 1.06705 145.781 1.66748 145.285 1.8963C127.008 11.0777 112.677 27.6958 102.328 45.6867C90.6288 66.0515 84.0285 88.2184 82.9983 103.606Z" fill="black"/>
<path fill-rule="evenodd" clip-rule="evenodd" d="M121.229 18.1149C120.839 17.7144 120.847 17.0566 121.244 16.6848C121.642 16.2843 122.279 16.3131 122.667 16.7135C122.667 16.7135 124.414 17.829 127.367 19.3735C128.323 19.8883 129.396 20.4031 130.567 20.9751C131.239 21.3183 131.945 21.6615 132.665 22.0619C133.663 22.5768 134.677 23.1776 135.776 23.7496C137.604 24.7221 139.495 25.6945 141.676 26.4096C142.221 26.524 142.582 27.039 142.479 27.5824C142.379 28.1259 141.854 28.4976 141.305 28.3832C138.82 28.2688 136.527 27.9827 134.375 27.4106C132.774 26.9816 131.293 26.4383 129.962 25.809C129.382 25.523 128.848 25.1798 128.34 24.8652C127.505 24.3218 126.745 23.7495 126.07 23.206C122.793 20.4316 121.229 18.1149 121.229 18.1149Z" fill="black"/>
<path fill-rule="evenodd" clip-rule="evenodd" d="M87.9311 71.3693C87.5036 70.9974 87.449 70.3682 87.8049 69.9392C88.1607 69.5101 88.7949 69.4528 89.2196 69.8246C89.2196 69.8246 92.2557 71.7698 96.8817 74.4298C98.4485 75.3165 100.188 76.2888 102.038 77.3185C103.146 77.9478 104.288 78.6057 105.445 79.2922C107.098 80.2647 108.774 81.2942 110.513 82.2667C113.586 84.0114 116.723 85.6705 119.971 86.8718C120.505 87.0148 120.821 87.5868 120.674 88.1017C120.528 88.6451 119.974 88.9597 119.437 88.8167C115.865 88.1589 112.269 87.1579 108.825 85.785C106.498 84.8697 104.257 83.8399 102.185 82.6672C101.315 82.181 100.492 81.666 99.6968 81.1226C98.4198 80.2931 97.226 79.4351 96.1327 78.6056C91.0447 74.6585 87.9311 71.3693 87.9311 71.3693Z" fill="black"/>
<path fill-rule="evenodd" clip-rule="evenodd" d="M125.725 49.661C125.505 49.1461 125.74 48.5742 126.248 48.3454C126.759 48.1166 127.35 48.3453 127.571 48.8602C130.107 53.8084 128.762 58.8138 125.901 62.2175C123.86 64.6201 120.965 66.1361 118.061 66.4221C115.928 66.5937 113.782 66.0503 111.842 64.706C109.581 63.0756 108.16 61.0448 107.514 58.871C106.464 55.3815 107.296 51.5204 109.472 48.6029C112.668 44.3126 118.594 41.8241 124.652 45.3994C125.146 45.6568 125.341 46.2575 125.086 46.7438C124.83 47.2586 124.225 47.4302 123.731 47.1728C118.89 45.0562 114.686 47.2584 112.611 50.7193C111.377 52.7501 110.984 55.2385 111.776 57.4981C112.235 58.8138 113.113 60.0439 114.516 61.0449C116.075 62.2462 117.957 62.389 119.711 61.817C120.991 61.4165 122.222 60.7015 123.249 59.7291C125.728 57.3837 127.178 53.6939 125.725 49.661Z" fill="black"/>
<path fill-rule="evenodd" clip-rule="evenodd" d="M109.828 129.806C115.068 122.055 120.762 113.96 121.29 113.188C122.659 111.214 123.161 108.411 123.284 105.494C123.505 100.288 122.492 94.7393 122.171 92.3367C122.079 91.7933 122.446 91.2784 122.994 91.1926C123.543 91.0782 124.062 91.45 124.154 91.9934C124.67 94.4818 126.131 100.117 126.274 105.523C126.372 109.098 125.832 112.559 124.309 115.104C123.775 115.991 117.792 125.744 112.382 134.125C108.069 140.789 104.106 146.567 104.106 146.567C103.483 147.511 102.244 147.825 101.239 147.31C100.238 146.767 99.8045 145.566 100.238 144.536C100.238 144.536 102.872 138.501 105.535 131.122C107.131 126.688 108.755 121.797 109.774 117.393C110.503 114.218 110.947 111.329 110.83 109.098C110.761 107.811 110.56 106.781 110.055 106.066C109.719 105.608 109.805 104.979 110.247 104.664C110.692 104.321 111.323 104.407 111.656 104.864C113.47 107.067 113.547 112.072 112.583 117.936C111.963 121.74 110.947 125.887 109.828 129.806Z" fill="black"/>
<path fill-rule="evenodd" clip-rule="evenodd" d="M87.4322 71.7711C87.9487 71.5709 88.5341 71.8283 88.7379 72.3431C88.9445 72.858 88.6891 73.43 88.1754 73.6302C85.8596 74.6599 80.1403 78.2637 75.4082 81.9534C72.2257 84.4418 69.4479 86.8445 68.8797 88.5035C68.3889 89.905 67.089 94.2525 65.4705 99.4581C64.3915 102.948 63.1948 106.809 62.0068 110.47C61.5964 111.729 61.1918 112.958 60.7986 114.131C63.9036 110.556 67.5969 106.552 71.0979 103.377C75.0437 99.7728 78.8059 97.2556 81.248 97.1984C81.8018 97.1698 82.2811 97.5702 82.3126 98.1422C82.3471 98.6857 81.9252 99.172 81.3714 99.2006C79.2478 99.4008 76.2777 102.004 73.0378 105.35C65.3672 113.273 56.7897 125.629 56.7897 125.629C56.1755 126.487 55.042 126.745 54.1151 126.287C53.1882 125.801 52.7406 124.742 53.0591 123.741C53.0591 123.741 54.2098 119.823 55.88 114.56C56.7667 111.757 57.7941 108.582 58.8673 105.407C61.605 97.2843 64.5464 89.1897 65.35 87.1876C65.7115 86.3009 66.4777 85.2141 67.6256 84.0986C69.1092 82.6399 71.2271 81.0382 73.5687 79.4365C78.737 75.947 84.9585 72.6578 87.4322 71.7711Z" fill="black"/>
<path fill-rule="evenodd" clip-rule="evenodd" d="M80.1554 104.751C80.2616 104.208 80.7896 103.865 81.3349 103.951C81.8772 104.065 82.2359 104.58 82.1326 105.123C82.0437 106.439 81.5415 108.584 82.7353 110.729C83.0911 111.358 83.6708 111.931 84.437 112.56C85.0654 113.075 85.8431 113.561 86.8074 114.047C88.1963 114.905 89.4159 115.506 90.4805 115.935C91.835 116.478 92.8652 116.822 93.8008 116.65C95.3131 116.392 96.4409 115.334 97.5687 113.675C97.8269 113.189 98.4353 113.017 98.926 113.275C99.4196 113.532 99.609 114.133 99.3508 114.619C98.3005 117.336 96.8455 119.11 94.7506 119.939C93.0948 120.597 90.9598 120.597 88.1389 119.653C87.0513 119.31 85.8776 118.709 84.5547 118.023C83.5876 117.422 82.7582 116.822 82.0953 116.221C80.6432 114.848 79.7823 113.475 79.3691 112.159C78.9128 110.701 78.864 109.328 79.0994 108.098C79.3634 106.754 79.8685 105.609 80.1554 104.751Z" fill="black"/>
<path fill-rule="evenodd" clip-rule="evenodd" d="M90.8327 122.658C90.9446 122.114 91.4755 121.771 92.0207 121.857C92.5631 121.971 92.916 122.515 92.8041 123.058C92.8041 123.058 92.124 129.179 90.9761 137.016C90.715 138.789 90.4108 140.649 90.075 142.565C89.8598 143.766 89.6446 145.025 89.3806 146.226C88.7034 149.372 87.92 152.461 87.1767 155.35C85.1966 162.987 83.4289 168.908 83.4289 168.908C83.3169 169.451 82.7861 169.794 82.2437 169.68C81.6984 169.594 81.3483 169.051 81.4574 168.507C81.4574 168.507 82.1547 162.386 83.3342 154.549C83.779 151.632 84.2754 148.457 84.8838 145.311C85.122 144.081 85.4061 142.88 85.6873 141.678C86.1264 139.79 86.5769 137.96 87.0361 136.215C89.0506 128.55 90.8327 122.658 90.8327 122.658Z" fill="black"/>
<path fill-rule="evenodd" clip-rule="evenodd" d="M75.6543 138.586C75.927 138.128 76.5411 137.956 77.0232 138.214C77.5082 138.5 77.6775 139.1 77.4048 139.587C77.4048 139.587 74.5581 145.765 70.6639 153.545C69.7743 155.318 68.8158 157.148 67.8172 159.036C67.1744 160.238 66.5258 161.439 65.8343 162.64C64.0694 165.7 62.207 168.675 60.4651 171.45C55.8334 178.801 52.0196 184.435 52.0196 184.435C51.747 184.921 51.1329 185.093 50.6479 184.807C50.1658 184.549 49.9936 183.949 50.2662 183.463C50.2662 183.463 53.1302 177.285 57.053 169.533C58.5252 166.616 60.1293 163.47 61.8368 160.409C62.5054 159.179 63.2142 158.007 63.9173 156.834C65.0078 155.003 66.0954 153.23 67.1629 151.571C71.8262 144.22 75.6543 138.586 75.6543 138.586Z" fill="black"/>
<path fill-rule="evenodd" clip-rule="evenodd" d="M77.9073 115.759C78.2516 115.329 78.8859 115.243 79.3192 115.587C79.7525 115.93 79.8242 116.559 79.4799 116.988C79.4799 116.988 74.5842 124.025 68.1073 132.834C66.6265 134.865 65.0483 136.953 63.4211 139.069C62.3766 140.442 61.3177 141.815 60.2214 143.16C57.4235 146.62 54.5395 149.995 51.8563 153.113C44.7128 161.408 38.9487 167.758 38.9487 167.758C38.6032 168.187 37.9699 168.244 37.5354 167.901C37.1012 167.557 37.0292 166.928 37.375 166.499C37.375 166.499 42.2845 159.491 48.7886 150.682C51.2307 147.364 53.8852 143.817 56.6314 140.328C57.7076 138.955 58.8181 137.611 59.9172 136.295C61.6276 134.236 63.3207 132.233 64.9593 130.346C72.1306 122.08 77.9073 115.759 77.9073 115.759Z" fill="black"/>
<path fill-rule="evenodd" clip-rule="evenodd" d="M115.062 142.395C114.714 142.824 114.083 142.881 113.65 142.538C113.216 142.194 113.147 141.565 113.495 141.136C117.142 136.245 121.312 132.813 126.202 131.64C130.259 130.639 134.825 131.211 140.059 133.843C142.415 129.066 145.672 124.918 149.555 121.658C154.218 117.739 159.74 115.051 165.364 113.849C176.863 111.361 188.89 114.936 195.8 126.778C196.096 127.235 195.952 127.865 195.482 128.151C195.011 128.465 194.388 128.322 194.096 127.836C187.274 117.711 176.476 115.194 166.328 117.854C161.395 119.141 156.649 121.686 152.511 125.147C148.574 128.465 145.147 132.555 142.866 137.475C142.625 138.018 142.163 138.419 141.6 138.59C141.035 138.762 140.424 138.676 139.922 138.39C135.012 135.101 130.724 134.043 126.839 134.701C122.448 135.473 118.608 138.304 115.062 142.395Z" fill="black"/>
</g>
<defs>
<clipPath id="clip0_347_544">
<rect width="196" height="185" fill="white"/>
</clipPath>
</defs>
</svg>
