<svg width="37" height="41" viewBox="0 0 37 41" fill="none" xmlns="http://www.w3.org/2000/svg">
<path d="M35.8427 13.9846C35.6408 14.0988 30.8344 16.5089 30.8344 21.8526C31.0609 27.9469 36.8999 30.0841 37 30.0841C36.8999 30.1983 36.1185 32.9955 33.8039 35.9277C31.9671 38.4534 29.9283 41 26.8324 41C23.8875 41 22.8303 39.3166 19.4323 39.3166C15.7832 39.3166 14.7507 41 11.9568 41C8.86089 41 6.67108 38.317 4.73408 35.8149C2.21761 32.5402 0.0786986 27.4011 0.00318819 22.4666C-0.0476993 19.8519 0.507138 17.2816 1.91557 15.0984C3.90346 12.0505 7.45245 9.98155 11.3281 9.91333C14.2976 9.82285 16.9405 11.7554 18.7527 11.7554C20.4895 11.7554 23.7364 9.91333 27.4102 9.91333C28.9959 9.91481 33.2245 10.3464 35.8427 13.9846ZM18.5016 9.39126C17.973 7.0034 19.4323 4.61554 20.7915 3.09235C22.5283 1.25029 25.2713 0 27.6367 0C27.7877 2.38786 26.8307 4.72974 25.1202 6.43536C23.5854 8.27742 20.9426 9.66416 18.5016 9.39126Z" fill="#C6C6C8"/>
</svg>
