<svg width="24" height="24" viewBox="0 0 24 24" fill="none" xmlns="http://www.w3.org/2000/svg">
<path d="M17 14C17.2652 14 17.5196 13.8946 17.7071 13.7071C17.8946 13.5196 18 13.2652 18 13C18 12.7348 17.8946 12.4804 17.7071 12.2929C17.5196 12.1054 17.2652 12 17 12C16.7348 12 16.4804 12.1054 16.2929 12.2929C16.1054 12.4804 16 12.7348 16 13C16 13.2652 16.1054 13.5196 16.2929 13.7071C16.4804 13.8946 16.7348 14 17 14ZM17 18C17.2652 18 17.5196 17.8946 17.7071 17.7071C17.8946 17.5196 18 17.2652 18 17C18 16.7348 17.8946 16.4804 17.7071 16.2929C17.5196 16.1054 17.2652 16 17 16C16.7348 16 16.4804 16.1054 16.2929 16.2929C16.1054 16.4804 16 16.7348 16 17C16 17.2652 16.1054 17.5196 16.2929 17.7071C16.4804 17.8946 16.7348 18 17 18ZM13 13C13 13.2652 12.8946 13.5196 12.7071 13.7071C12.5196 13.8946 12.2652 14 12 14C11.7348 14 11.4804 13.8946 11.2929 13.7071C11.1054 13.5196 11 13.2652 11 13C11 12.7348 11.1054 12.4804 11.2929 12.2929C11.4804 12.1054 11.7348 12 12 12C12.2652 12 12.5196 12.1054 12.7071 12.2929C12.8946 12.4804 13 12.7348 13 13ZM13 17C13 17.2652 12.8946 17.5196 12.7071 17.7071C12.5196 17.8946 12.2652 18 12 18C11.7348 18 11.4804 17.8946 11.2929 17.7071C11.1054 17.5196 11 17.2652 11 17C11 16.7348 11.1054 16.4804 11.2929 16.2929C11.4804 16.1054 11.7348 16 12 16C12.2652 16 12.5196 16.1054 12.7071 16.2929C12.8946 16.4804 13 16.7348 13 17ZM7 14C7.26522 14 7.51957 13.8946 7.70711 13.7071C7.89464 13.5196 8 13.2652 8 13C8 12.7348 7.89464 12.4804 7.70711 12.2929C7.51957 12.1054 7.26522 12 7 12C6.73478 12 6.48043 12.1054 6.29289 12.2929C6.10536 12.4804 6 12.7348 6 13C6 13.2652 6.10536 13.5196 6.29289 13.7071C6.48043 13.8946 6.73478 14 7 14ZM7 18C7.26522 18 7.51957 17.8946 7.70711 17.7071C7.89464 17.5196 8 17.2652 8 17C8 16.7348 7.89464 16.4804 7.70711 16.2929C7.51957 16.1054 7.26522 16 7 16C6.73478 16 6.48043 16.1054 6.29289 16.2929C6.10536 16.4804 6 16.7348 6 17C6 17.2652 6.10536 17.5196 6.29289 17.7071C6.48043 17.8946 6.73478 18 7 18Z" fill="black"/>
<path fill-rule="evenodd" clip-rule="evenodd" d="M6.999 1.75C7.19791 1.75 7.38868 1.82902 7.52933 1.96967C7.66998 2.11032 7.749 2.30109 7.749 2.5V3.263C8.411 3.25 9.14 3.25 9.942 3.25H14.055C14.858 3.25 15.587 3.25 16.249 3.263V2.5C16.249 2.30109 16.328 2.11032 16.4687 1.96967C16.6093 1.82902 16.8001 1.75 16.999 1.75C17.1979 1.75 17.3887 1.82902 17.5293 1.96967C17.67 2.11032 17.749 2.30109 17.749 2.5V3.327C18.009 3.347 18.2553 3.37233 18.488 3.403C19.66 3.561 20.609 3.893 21.358 4.641C22.106 5.39 22.438 6.339 22.596 7.511C22.749 8.651 22.749 10.106 22.749 11.944V14.056C22.749 15.894 22.749 17.35 22.596 18.489C22.438 19.661 22.106 20.61 21.358 21.359C20.609 22.107 19.66 22.439 18.488 22.597C17.348 22.75 15.893 22.75 14.055 22.75H9.944C8.106 22.75 6.65 22.75 5.511 22.597C4.339 22.439 3.39 22.107 2.641 21.359C1.893 20.61 1.561 19.661 1.403 18.489C1.25 17.349 1.25 15.894 1.25 14.056V11.944C1.25 10.106 1.25 8.65 1.403 7.511C1.561 6.339 1.893 5.39 2.641 4.641C3.39 3.893 4.339 3.561 5.511 3.403C5.74433 3.37233 5.99067 3.347 6.25 3.327V2.5C6.25 2.30126 6.32888 2.11065 6.46932 1.97002C6.60975 1.8294 6.80026 1.75026 6.999 1.75ZM5.709 4.89C4.704 5.025 4.124 5.279 3.701 5.702C3.278 6.125 3.024 6.705 2.889 7.71C2.86633 7.88 2.847 8.05967 2.831 8.249H21.167C21.151 8.05967 21.1317 7.87967 21.109 7.709C20.974 6.704 20.72 6.124 20.297 5.701C19.874 5.278 19.294 5.024 18.288 4.889C17.261 4.751 15.906 4.749 13.999 4.749H9.999C8.092 4.749 6.738 4.752 5.709 4.89ZM2.749 12C2.749 11.146 2.749 10.403 2.762 9.75H21.236C21.249 10.403 21.249 11.146 21.249 12V14C21.249 15.907 21.247 17.262 21.109 18.29C20.974 19.295 20.72 19.875 20.297 20.298C19.874 20.721 19.294 20.975 18.288 21.11C17.261 21.248 15.906 21.25 13.999 21.25H9.999C8.092 21.25 6.738 21.248 5.709 21.11C4.704 20.975 4.124 20.721 3.701 20.298C3.278 19.875 3.024 19.295 2.889 18.289C2.751 17.262 2.749 15.907 2.749 14V12Z" fill="black"/>
</svg>
