<svg width="114" height="114" viewBox="0 0 114 114" fill="none" xmlns="http://www.w3.org/2000/svg">
<path d="M57 104.5C69.35 104.5 80.56 99.7975 89.015 92.055C88.54 87.59 85.69 83.22 80.6075 79.8C67.6875 71.155 46.4075 71.155 33.3925 79.8C28.31 83.22 25.46 87.59 24.985 92.055C33.44 99.7975 44.65 104.5 57 104.5ZM57 104.5C83.2335 104.5 104.5 83.2335 104.5 57C104.5 30.7665 83.2335 9.5 57 9.5C30.7665 9.5 9.5 30.7665 9.5 57C9.5 83.2335 30.7665 104.5 57 104.5ZM57.57 60.705C57.2375 60.6575 56.81 60.6575 56.43 60.705C48.07 60.42 41.42 53.58 41.42 45.1725C41.42 36.575 48.355 29.5925 57 29.5925C65.5975 29.5925 72.58 36.575 72.58 45.1725C72.5325 53.58 65.93 60.42 57.57 60.705Z" stroke="#292D32" stroke-width="1.5" stroke-linecap="round" stroke-linejoin="round"/>
</svg>
