<svg width="161" height="149" viewBox="0 0 161 149" fill="none" xmlns="http://www.w3.org/2000/svg">
<g clip-path="url(#clip0_347_531)">
<path fill-rule="evenodd" clip-rule="evenodd" d="M49.8945 83.8479C55.6207 91.201 59.8804 97.5604 63.1014 102.926C68.1616 111.372 70.6768 117.384 72.3718 120.911C72.8888 121.98 73.5647 123.023 73.8182 123.421C82.0148 122.501 89.4782 121.309 96.2731 119.918C109.818 117.185 120.684 113.633 129.308 109.907C145.682 102.777 153.923 94.9521 157.02 90.5551C157.633 89.6857 158.063 88.7664 158.242 88.3441C157.171 87.0772 154.532 83.6987 151.413 79.5998C144.546 70.5575 135.253 58.0871 135.253 58.0871C134.96 57.7145 135.034 57.1679 135.415 56.8698C135.797 56.5717 136.344 56.6462 136.637 57.0437C136.637 57.0437 146.238 69.2657 153.306 78.1093C156.97 82.705 159.93 86.3815 160.464 86.8784C160.757 87.1268 161.021 87.574 160.989 88.2944C160.956 88.9651 160.477 90.3065 159.274 92.0951C156.122 96.7902 147.737 105.286 130.702 113.037C121.947 117.011 110.887 120.787 97.0611 123.719C90.0574 125.209 82.3405 126.426 73.858 127.395C72.8192 127.519 71.815 127.172 70.8582 126.103C70.2468 125.408 69.5832 124.265 68.8028 122.601C66.0366 116.788 61.0958 103.969 45.8956 84.3197C45.5327 83.8477 45.4333 83.3759 45.473 82.9287C45.5178 82.4567 45.7191 81.9101 46.3578 81.463C46.9195 81.0655 48.6145 80.5935 51.3658 80.1464C58.5657 78.9292 73.9972 76.7182 94.2675 69.2906C103.369 65.9618 113.447 61.5897 124.193 55.7519C124.613 55.5283 125.143 55.6775 125.376 56.0998C125.613 56.5221 125.461 57.0437 125.041 57.2921C111.173 65.2166 98.3832 70.6818 87.3508 74.4826C70.0902 80.4694 57.1417 82.4318 51.152 83.5745C50.7271 83.6739 50.2896 83.7734 49.8945 83.8479Z" fill="black"/>
<path fill-rule="evenodd" clip-rule="evenodd" d="M107.438 79.6757C107.92 79.7005 108.3 80.0981 108.288 80.5701C108.275 81.067 107.875 81.4394 107.396 81.4146C102.676 81.5388 99.0301 83.0543 97.0642 85.0416C96.1397 85.9608 95.655 86.9792 95.8439 87.9729C95.9458 88.5194 96.2987 88.9915 96.8157 89.4386C97.5364 90.0845 98.5976 90.606 99.9968 91.0284C101.244 91.4258 103.079 91.5253 105.089 91.7986C106.943 92.047 108.937 92.3698 110.811 93.0157C113.522 93.9348 115.985 95.4503 117.62 97.9593C119.733 101.313 117.904 105.312 113.631 107.623C109.744 109.734 104.041 110.504 99.3954 107.921C98.963 107.722 98.7865 107.2 99.0003 106.778C99.214 106.331 99.7384 106.157 100.168 106.38C103.541 107.846 107.334 107.399 110.323 106.058C111.984 105.337 113.373 104.294 114.263 103.151C115.06 102.133 115.381 100.99 114.645 99.9963C113.4 98.2574 111.541 97.363 109.593 96.7419C107.928 96.2202 106.175 95.9469 104.545 95.6985C102.264 95.3756 100.198 95.0775 98.794 94.5807C92.7124 92.2952 91.4996 88.3951 93.2145 85.1906C93.9153 83.874 95.158 82.6071 96.9226 81.6383C99.4725 80.2471 103.104 79.3776 107.438 79.6757Z" fill="black"/>
<path fill-rule="evenodd" clip-rule="evenodd" d="M93.4801 75.1513C93.1868 74.7538 93.2614 74.2072 93.6442 73.934C94.0244 73.6359 94.5737 73.7103 94.8645 74.0829C94.8645 74.0829 95.717 74.5303 97.1784 75.7724C97.4443 75.9959 97.7003 76.2442 97.9712 76.5423C98.1302 76.7162 98.2942 76.8902 98.4309 77.0889C98.7391 77.5857 98.9851 78.1323 99.2287 78.7533C99.5617 79.598 99.763 80.4425 100.066 81.4362C100.335 81.8585 100.228 82.38 99.8277 82.6533C99.4275 82.9265 98.8858 82.8272 98.6198 82.4049C97.8096 81.759 97.1038 81.287 96.4328 80.666C95.9531 80.2436 95.5256 79.8215 95.1802 79.3744C95.0286 79.2005 94.9191 78.9768 94.8098 78.7781C94.6234 78.4303 94.4768 78.1073 94.3525 77.8092C93.6666 76.0703 93.4801 75.1513 93.4801 75.1513ZM112.125 106.65C111.936 106.203 112.145 105.706 112.587 105.508C113.03 105.334 113.542 105.533 113.728 105.98C114.282 106.427 114.695 106.675 115.17 107.197C115.433 107.47 115.674 107.768 115.808 108.141C115.945 108.514 115.938 108.886 115.935 109.284C115.93 109.979 115.813 110.451 115.719 111.147C115.875 111.594 115.634 112.091 115.18 112.24C114.725 112.414 114.23 112.165 114.074 111.718C113.591 111.246 113.199 110.973 112.751 110.476C112.5 110.178 112.247 109.929 112.1 109.582C111.961 109.234 111.949 108.861 111.939 108.489C111.919 107.793 112.065 107.346 112.125 106.65Z" fill="black"/>
<path fill-rule="evenodd" clip-rule="evenodd" d="M154.081 1.02649C154.012 0.554496 154.342 0.10725 154.82 0.0575668C155.294 -0.0169581 155.737 0.30608 155.806 0.778071C155.806 0.778071 157.819 11.4104 157.3 26.3402C157.188 29.5696 156.935 32.9975 156.51 36.5747C156.246 38.7856 155.921 41.0464 155.486 43.3567C154.457 48.7473 152.956 54.3367 150.91 59.8764C148.032 67.6766 144.031 75.3775 138.707 82.4325C138.431 82.83 137.887 82.9292 137.494 82.6559C137.102 82.3827 137.007 81.8363 137.283 81.4388C140.387 76.6693 142.863 71.6759 144.908 66.6331C147.038 61.3667 148.636 56.0259 149.889 50.7594C150.679 47.4555 151.32 44.1765 151.872 40.9967C152.461 37.5686 152.946 34.2645 153.316 31.1096C153.815 26.7871 154.129 22.738 154.298 19.1111C154.8 8.30503 154.081 1.02649 154.081 1.02649Z" fill="black"/>
<path fill-rule="evenodd" clip-rule="evenodd" d="M142.89 21.895C142.815 21.423 143.141 20.9758 143.615 20.9013C144.09 20.8268 144.535 21.1498 144.609 21.6218C144.609 21.6218 145.539 24.7517 145.526 30.4901C145.522 31.5831 145.459 32.7507 145.338 34.0176C145.266 34.7877 145.179 35.5578 145.029 36.3776C144.701 38.1413 144.204 40.0542 143.546 42.0664C142.711 44.6251 141.582 47.308 140.233 50.1897C140.071 50.6368 139.572 50.8603 139.119 50.7113C138.665 50.5374 138.428 50.0405 138.59 49.5934C139.094 47.5564 139.46 45.6187 139.813 43.7556C140.205 41.6689 140.491 39.7313 140.772 37.9178C140.939 36.8248 141.093 35.8063 141.259 34.8126C141.552 33.1234 141.833 31.5833 142.054 30.1922C142.892 24.9009 142.89 21.895 142.89 21.895Z" fill="black"/>
<path fill-rule="evenodd" clip-rule="evenodd" d="M104.956 48.9952C104.513 49.3678 103.87 50.3863 103.236 51.1068C101.949 52.5724 100.408 54.5598 98.5835 56.7956C96.4437 59.4039 93.9384 62.3353 91.2418 65.2915C87.735 69.1419 83.8654 72.9923 79.9684 76.2465C79.6155 76.5695 79.0637 76.5446 78.7381 76.1968C78.4125 75.8242 78.4349 75.2776 78.7878 74.9547C81.139 72.5699 83.408 69.8622 85.62 67.1296C87.8617 64.3473 89.9966 61.5156 92.0048 58.8824C93.5159 56.895 94.9399 55.0069 96.2771 53.3425C98.0665 51.1068 99.6894 49.2687 100.994 47.9521C102.242 46.71 103.298 45.9149 104.044 45.6416C105.038 45.2441 105.836 45.3683 106.432 45.7658C107.143 46.2626 108.806 47.4303 110.742 48.8463C115.014 51.9515 120.626 56.1745 120.626 56.1745C121.028 56.4478 121.138 56.9694 120.872 57.3669C120.606 57.7892 120.067 57.8886 119.664 57.6153L104.956 48.9952ZM105.021 48.9457C105.05 48.9457 105.083 48.9457 105.117 48.9457C105.199 48.9457 105.473 49.0451 105.413 48.9457C105.329 48.7967 105.192 48.8215 105.021 48.9457Z" fill="black"/>
<path fill-rule="evenodd" clip-rule="evenodd" d="M123.824 21.197C123.471 21.197 122.956 21.1721 122.484 21.197C118.222 21.3957 109.153 22.762 97.3573 23.5569C92.9831 23.855 88.2361 24.0786 83.2257 24.1035C79.1174 24.1283 74.8327 24.0041 70.4286 23.7309C70.3789 24.1283 70.3292 24.625 70.3093 25.0722C70.0409 30.9099 70.727 43.7531 69.6533 56.6707C68.9674 64.943 67.5482 73.24 64.787 79.7982C64.6105 80.2453 64.1036 80.4689 63.6562 80.295C63.2089 80.1211 62.9901 79.5996 63.1666 79.1524C65.8706 71.8987 66.7852 62.5829 67.0312 53.5903C67.3145 43.2313 66.666 33.2948 66.5665 27.3576C66.5168 24.3766 66.6883 22.2899 67.0238 21.4204C67.5333 20.1038 68.4851 19.8058 69.2953 19.8307C76.3487 20.2281 83.1089 20.2032 89.3371 20.0541C102.554 19.7312 113.393 18.6631 119.519 18.2904C122.335 18.1166 124.251 18.1662 125.081 18.4147C126.08 18.7376 126.451 19.3586 126.533 19.9052C127.348 25.5442 127.507 31.1585 127.286 35.779C127.039 40.9461 126.324 44.9206 125.608 46.4359C125.412 46.8583 124.897 47.057 124.457 46.8583C124.02 46.6596 123.824 46.1628 124.02 45.7157C124.619 44.2997 125.041 40.5486 125.056 35.7293C125.066 31.4566 124.733 26.3392 123.824 21.197Z" fill="black"/>
<path fill-rule="evenodd" clip-rule="evenodd" d="M47.8653 121.239C48.5886 121.736 49.9431 122.381 51.1484 123.077C53.4623 124.443 56.569 126.108 60.0634 127.921C64.2661 130.107 69.0478 132.492 73.7277 134.827C78.6512 137.286 83.4603 139.696 87.4542 141.609C91.8856 143.745 95.2581 145.335 96.5554 145.708C97.4352 145.981 98.3871 145.509 99.4185 144.739C100.877 143.646 102.386 141.957 103.84 139.994C107.431 135.175 110.682 128.766 111.967 125.164C112.116 124.717 112.608 124.468 113.065 124.617C113.523 124.766 113.771 125.263 113.622 125.71C112.307 130.132 108.45 138.678 104.28 143.969C102.632 146.056 100.895 147.621 99.2744 148.391C98.0317 148.987 96.8164 149.111 95.6756 148.813C93.3195 148.192 84.2829 144.366 74.5205 139.622C71.1256 137.982 67.6511 136.218 64.3332 134.479C60.6947 132.542 57.255 130.629 54.3148 128.94C49.968 126.406 46.7072 124.245 45.4695 123.052C44.0181 121.611 44.458 120.32 45.0396 119.823C45.7131 119.251 47.3832 117.09 49.3565 114.482C53.6437 108.768 59.2308 100.893 59.2308 100.893C59.4992 100.496 60.0385 100.397 60.4386 100.67C60.8387 100.918 60.9481 101.465 60.6821 101.862C60.6821 101.862 55.5501 110.085 51.5636 116.047C50.0873 118.233 48.7451 120.146 47.8653 121.239ZM47.5646 121.015C47.5795 120.792 47.5994 120.419 47.418 120.543C47.2664 120.667 47.3385 120.841 47.5646 121.015Z" fill="black"/>
<path fill-rule="evenodd" clip-rule="evenodd" d="M57.9813 139.193C58.6151 139.193 59.8104 138.821 60.6356 138.622C62.9917 138.075 65.5292 137.206 66.6675 136.908C67.1148 136.734 67.6219 136.957 67.7958 137.405C67.9723 137.852 67.7511 138.349 67.3037 138.522C66.1903 139.094 63.7373 140.659 61.3961 141.677C60.2901 142.149 59.204 142.472 58.2944 142.597C56.2465 142.87 54.9219 141.975 54.3553 140.534C54.2111 140.137 53.9327 139.417 53.5177 138.224C53.299 137.578 53.0504 136.808 52.7571 135.889C52.3023 134.448 51.7506 132.635 51.0423 130.349C50.5402 128.735 50.0108 126.896 49.3472 124.76C49.1558 124.313 49.3621 123.816 49.802 123.617C50.2444 123.444 50.7564 123.642 50.9477 124.09C51.8648 125.729 52.6726 127.17 53.3735 128.486C54.298 130.25 55.0386 131.741 55.6326 133.008C56.2067 134.225 56.6492 135.268 56.9723 136.113C57.5762 137.703 57.8198 138.672 57.9813 139.193ZM58.0086 139.292C58.0111 139.292 58.0136 139.317 58.0186 139.317C58.0161 139.317 58.0136 139.292 58.0086 139.292ZM57.9714 139.193C57.8645 138.994 57.6408 138.721 57.5737 138.92C57.4867 139.143 57.6582 139.218 57.9714 139.193ZM58.9953 38.2865C50.9727 42.3108 43.887 45.1924 37.9048 47.304C29.5467 50.2601 23.3929 51.7756 19.9706 53.0425C19.4139 53.2661 18.728 53.4399 18.3129 53.6138C21.1139 59.2032 23.736 64.4446 26.1293 69.3633C28.9949 75.2507 31.5647 80.6662 33.8885 85.6345C40.5964 99.993 45.2366 110.7 48.552 118.599C48.7458 119.047 48.547 119.544 48.1071 119.742C47.6697 119.941 47.1527 119.742 46.9588 119.295C44.5257 114.128 41.4091 107.768 37.4773 99.8937C33.712 92.3667 29.1589 83.4981 23.7534 72.9653C20.9226 67.4505 17.8954 61.4637 14.5626 55.0049C14.1301 54.1602 14.0904 53.3654 14.3116 52.6202C14.4881 52.0488 14.8534 51.4526 15.5021 50.931C16.1433 50.3845 17.1722 49.8627 18.6112 49.341C21.8223 48.1983 27.4043 46.8817 34.977 44.4969C41.4463 42.4847 49.3895 39.6777 58.5455 35.405C59.0252 35.1814 59.7782 35.0818 60.5338 35.8271C61.1253 36.3984 62.0597 37.9884 63.0414 40.1993C65.2832 45.267 68.1139 53.8373 68.8993 59.7745C68.9714 60.2465 68.6458 60.6936 68.1711 60.7682C67.6939 60.8427 67.2491 60.5196 67.1771 60.0477C66.004 53.3156 61.9553 43.2051 59.5694 39.156C59.3929 38.833 59.1743 38.5349 58.9953 38.2865ZM18.2036 53.6636C17.965 53.7878 17.8581 53.887 17.9973 54.0112C18.1439 54.1106 18.2086 53.912 18.2036 53.6636Z" fill="black"/>
<path fill-rule="evenodd" clip-rule="evenodd" d="M3.91495 85.8872C6.61153 87.1789 9.37521 88.5702 12.1016 90.0607C15.0865 91.7251 18.0366 93.4889 20.8823 95.2775C24.5109 97.5629 27.9605 99.8731 31.0796 102.059C39.7584 108.071 45.8574 112.915 45.8574 112.915C46.2476 113.188 46.337 113.735 46.0562 114.132C45.7753 114.505 45.231 114.604 44.8408 114.306C44.8408 114.306 35.2872 108.096 23.293 101.066C19.7912 99.0037 16.0806 96.8672 12.3625 94.7557C8.65442 92.669 4.95628 90.5575 1.34509 88.7192C0.65665 88.3714 0.283864 87.8746 0.117347 87.3529C-0.0342589 86.8809 -0.0715147 86.3096 0.204358 85.6637C0.440464 85.1172 1.02204 84.3472 2.0112 83.4777C3.73354 81.9624 6.82776 79.7763 10.4762 76.8947C14.1048 74.0627 18.2876 70.5601 22.1274 66.337C22.4356 65.9644 22.9873 65.9146 23.3552 66.2375C23.723 66.5356 23.7677 67.0822 23.4595 67.4549C19.3836 72.6716 14.8181 76.9692 11.0056 80.3228C8.39098 82.6082 5.1775 84.6202 3.91495 85.8872ZM3.59433 86.235C3.31846 86.6077 3.27872 86.881 3.56205 87.03C3.85532 87.2039 3.66393 86.4835 3.60925 86.2848C3.60428 86.2848 3.5993 86.2599 3.59433 86.235Z" fill="black"/>
</g>
<defs>
<clipPath id="clip0_347_531">
<rect width="161" height="149" fill="white"/>
</clipPath>
</defs>
</svg>
