<svg width="221" height="221" viewBox="0 0 221 221" fill="none" xmlns="http://www.w3.org/2000/svg">
<path d="M208.145 60.8838C251.984 145.312 174.923 240.573 83.0563 217.317C41.8174 207.062 8.66743 171.312 1.80632 129.35C-5.99368 87.606 12.8563 42.756 48.1008 19.1394C96.4174 -14.0829 163.367 -3.03286 197.962 44.4894C198.179 44.706 198.106 45.0671 197.817 45.2838C197.601 45.5005 197.24 45.4283 197.023 45.1394C192.256 39.0005 186.84 33.4394 180.917 28.456C171.167 20.1505 159.756 13.6505 147.695 9.24492C86.3063 -12.9995 18.923 23.9783 5.48966 88.1838C-9.67701 160.117 51.4952 226.345 124.44 216.45C180.701 209.373 222.517 157.445 217.895 100.967C216.884 87.3171 213.273 73.8116 207.279 61.3894C207.134 61.1727 207.279 60.8838 207.495 60.7394C207.712 60.5949 208.001 60.6671 208.145 60.8838Z" fill="black"/>
<path d="M128.937 171.514C127.458 178.772 117.875 183.14 101.74 176.587C84.9702 169.823 77.7128 153.688 75.8809 148.896C85.8158 130.295 78.9107 117.401 78.9107 117.401C101.81 115.428 121.821 142.203 121.821 142.203L124.921 155.449C125.203 156.577 125.767 157.563 126.612 158.268C128.092 160.875 129.853 166.864 128.937 171.514Z" fill="white"/>
<path d="M75.5293 149.112C76.868 147.068 77.7136 144.673 78.2772 142.347C79.3341 137.486 79.6864 132.553 79.7569 127.621V125.789C79.5455 123.957 78.9114 122.055 78.2068 120.364C77.2908 118.109 80.6024 116.7 81.6593 118.955C81.8002 119.236 81.8002 119.73 81.8002 120.012C82.0116 129.594 82.4344 141.925 76.3748 149.887C75.952 150.309 75.1065 149.675 75.5293 149.112Z" fill="black"/>
<path d="M122.596 142.061C123.653 142.695 124.005 143.54 124.146 144.386C124.569 146.077 124.428 147.909 124.85 149.67C125.203 151.361 126.26 152.982 126.541 154.744C126.894 156.575 127.951 160.451 128.373 162.353C128.514 162.776 128.232 163.269 127.739 163.34C127.457 163.41 127.246 163.34 127.035 163.199C126.119 162.424 125.696 161.649 125.132 160.662C124.216 158.971 123.582 157.421 123.018 155.519C122.525 153.828 122.737 151.996 122.314 150.234C121.961 148.543 120.975 146.922 120.623 145.161C120.411 144.315 120.341 143.399 120.975 142.343C121.398 141.92 122.102 141.779 122.596 142.061Z" fill="black"/>
<path d="M127.669 160.66C114.212 159.955 103.22 155.728 92.5098 136.633C101.529 144.595 112.168 147.625 123.371 149.034L124.851 155.516C125.133 156.644 126.824 159.955 127.669 160.66Z" fill="black"/>
<path d="M127.106 158.055C129.502 162.565 130.911 168.201 129.432 173.204C128.304 176.727 125.063 179.334 121.54 180.321C113.367 182.505 103.925 179.052 96.6675 175.177C87.7191 170.174 81.0958 161.79 76.8682 152.63C76.5864 151.925 77.5728 151.361 77.9956 152.066C79.4752 155.025 81.1663 157.914 83.0687 160.521C84.9711 163.199 87.1554 165.665 89.6215 167.849C96.8084 174.331 106.532 178.348 116.255 178.348C126.261 178.066 130.066 172.781 127.74 163.058C127.388 161.508 126.825 159.887 126.049 158.548C125.627 157.985 126.684 157.351 127.106 158.055Z" fill="black"/>
<path d="M154.373 73.4346C155.641 79.3532 154.654 83.299 154.091 99.6458C153.809 107.396 152.611 110.285 152.259 118.952C152.118 122.898 149.229 128.323 148.172 131.494C146.763 135.792 145.354 141.57 142.113 145.727C140.421 147.841 138.378 149.109 134.996 149.673C133.869 149.884 132.741 148.193 131.825 148.545C120.763 153.407 108.644 151.152 97.6521 141.57C92.8608 137.342 85.6739 127.125 82.6441 120.079C82.0099 118.6 79.1915 121.7 75.1753 117.261C69.6089 111.201 62.9152 99.0116 66.2269 77.4508C71.5818 42.5026 99.2727 38.4159 119.777 42.2912C140.421 46.1665 150.991 57.8629 154.373 73.4346Z" fill="white"/>
<path d="M78.6991 123.46C77.0785 120.782 74.9647 118.386 73.0623 115.85C70.2439 111.975 68.1301 107.536 66.7208 102.956C59.4634 80.2675 66.3685 49.4764 91.7342 42.1485C101.035 39.3301 110.899 39.5415 120.341 41.303C133.024 43.4873 145.707 49.9696 151.907 61.7365C154.162 66.105 155.853 70.8258 156.346 75.6876C156.628 78.9288 156.064 82.1699 155.712 85.3406C155.289 88.5113 155.219 91.6116 155.078 94.7823C154.726 99.5031 154.092 104.154 153.88 108.874C153.598 112.045 153.81 115.216 153.316 118.386C152.26 124.728 149.864 130.647 147.891 136.636C146.341 141.216 144.791 146.852 140.07 149.178C136.688 151.221 132.601 151.291 128.867 151.01C128.303 151.01 127.88 150.869 127.458 151.01C118.368 152.771 109.913 151.221 102.303 145.725C98.6393 142.836 94.2708 140.088 91.5228 136.283C91.241 135.861 91.8047 135.367 92.157 135.72C94.3413 137.904 96.9483 139.595 99.6258 141.216C102.374 142.907 104.84 144.668 107.588 145.866C113.436 148.684 119.989 149.107 126.33 147.98C126.682 147.909 127.387 147.768 127.739 147.839C130.065 147.98 132.319 148.191 134.574 147.839C137.322 147.416 139.999 146.218 141.55 143.964C143.17 141.709 144.016 138.609 145.143 135.649C147.327 129.801 149.934 124.023 151.273 117.964C151.837 115.357 151.978 111.411 152.189 108.663C152.682 102.392 153.81 96.1915 153.81 89.8501C153.88 86.6794 153.951 83.5087 153.88 80.4084C153.035 64.6253 143.945 51.097 128.937 45.5306C112.238 39.2597 89.9727 39.6824 77.7126 54.2677C71.794 61.2432 69.046 70.4031 67.7777 79.3515C65.3821 93.5845 66.2981 107.677 77.6422 118.034L80.9538 121.487C82.2221 123.319 79.8264 125.151 78.6991 123.46Z" fill="black"/>
<path d="M87.0137 101.055C87.0137 101.055 84.8294 90.4858 74.5422 91.7541C65.6643 92.8815 62.564 114.16 82.7156 120.079" fill="white"/>
<path d="M81.7992 110.844C80.1786 109.928 79.0512 108.378 78.9808 106.475C79.0512 105.066 79.2626 103.446 78.9103 102.036C78.6989 100.698 77.2897 100.345 76.2328 100.416C75.1054 100.627 74.4008 102.036 74.1895 103.164C74.1895 103.234 74.119 103.446 74.119 103.516C74.0485 103.868 73.4849 103.868 73.3439 103.516C72.428 100.768 74.4713 97.7383 77.4306 98.0906C81.5878 98.3724 82.1515 102.741 81.3764 106.053C80.9536 107.462 81.5173 108.73 82.2924 109.928L82.4333 110.139C82.7856 110.562 82.2219 111.126 81.7992 110.844Z" fill="black"/>
<path d="M138.168 93.5845C139.225 98.5872 141.198 103.238 143.664 107.606C145.849 112.961 140.212 118.034 135.209 117.823C134.645 117.823 134.575 117.048 135.068 116.907C138.239 115.92 141.128 113.807 141.621 110.565C141.832 109.579 141.55 108.733 141.057 107.888C138.732 103.519 137.323 98.5168 137.675 93.5845C137.675 93.2322 138.168 93.2322 138.168 93.5845Z" fill="black"/>
<path d="M86.6609 101.124C85.0403 96.9673 81.5173 93.0215 76.7965 93.092C76.3737 93.0215 75.6691 93.1624 75.2464 93.1624C74.0486 93.2329 73.0621 93.6557 72.1461 94.5012C67.6367 99.0106 68.4117 106.973 72.0757 111.975C73.3439 113.737 74.9645 115.287 76.7965 116.555C78.6285 117.824 80.6718 118.81 82.8561 119.655C83.3493 119.796 83.1379 120.571 82.6447 120.501C77.9239 119.515 73.4144 117.189 70.3142 113.314C65.5229 107.536 64.5364 97.8833 70.2437 92.2465C71.512 91.1191 73.2735 90.2736 75.035 90.2736C75.5987 90.2736 76.4442 90.1326 77.0079 90.2736C79.9672 90.4145 82.7856 91.8941 84.6176 94.2193C86.2382 96.1922 87.1541 98.5879 87.436 100.984C87.436 101.406 86.8018 101.547 86.6609 101.124Z" fill="black"/>
<path d="M126.12 148.4C129.361 147.696 131.263 144.525 130.981 141.284C130.911 140.791 131.686 140.65 131.757 141.143C132.954 145.159 130.77 149.528 126.895 151.078C124.851 151.853 124.006 148.753 126.12 148.4Z" fill="black"/>
<path d="M144.194 136.938C145.215 131.561 145.555 126.117 144.671 120.74C144.33 118.698 143.105 115.296 141.2 116.793C140.451 117.405 136.572 118.63 135.823 118.698C133.645 118.903 132.012 118.63 130.447 117.405C128.677 115.976 128.677 115.364 128.269 115.228C121.123 112.846 112.139 110.464 109.213 120.06C106.831 127.886 100.842 135.577 96.4182 127.954C93.0154 122.169 93.2195 111.144 92.7431 108.83C91.5862 103.113 89.9528 100.323 89 101.14C89 102.977 89.6125 124.687 89.6806 125.844C90.157 131.833 90.9056 133.739 93.6279 137.618C96.3502 141.498 105.878 152.046 118.265 152.931C130.719 153.816 137.593 152.795 144.535 144.832C150.796 137.618 151 122.646 151 122.646C147.937 131.697 145.828 134.692 144.194 136.938ZM116.155 121.625C119.694 117.746 124.866 122.237 130.447 122.646C135.959 123.054 138.205 119.583 138.614 125.708C138.75 127.206 138.954 129.724 138.886 131.425C138.886 131.493 138.886 131.561 138.886 131.629C138.682 133.535 138.069 135.645 136.164 136.802C132.148 139.32 125.683 138.707 121.531 137.891C115.746 136.734 114.521 134.079 114.249 132.854C113.841 127.614 114.726 123.19 116.155 121.625Z" fill="black"/>
<path d="M116.782 96.9676C115.137 96.899 113.903 95.528 114.04 93.8828L114.108 91.9634C114.177 90.3182 115.548 89.0842 117.193 89.2213C118.838 89.2899 120.072 90.6609 119.935 92.3061L119.867 94.2256C119.798 95.8022 118.427 97.0361 116.782 96.9676Z" fill="black"/>
<path d="M145.639 97.9958C144.131 97.9273 142.966 96.6248 143.034 95.1167L143.103 93.3344C143.171 91.8262 144.474 90.6609 145.982 90.7294C147.49 90.798 148.655 92.1005 148.587 93.6086L148.518 95.3909C148.45 96.899 147.147 98.0644 145.639 97.9958Z" fill="black"/>
<path d="M122.951 93.2676C120.689 91.7595 118.221 90.7312 115.479 91.2796C114.588 91.4167 113.697 91.691 113.148 92.3079C112.943 92.5821 112.463 92.5136 112.463 92.1023C112.531 90.7312 113.697 89.8401 114.794 89.2917C116.919 88.1949 119.866 88.4005 121.786 89.8401C122.471 90.2514 124.802 92.7878 123.568 93.3362C123.294 93.4733 123.157 93.4047 122.951 93.2676Z" fill="black"/>
<path d="M142.555 93.6118C142.555 90.7326 146.119 89.7044 148.313 90.7326C149.547 91.281 150.438 92.3778 150.781 93.6803C150.918 94.0916 150.301 94.4344 150.027 94.0916C148.861 92.7206 146.873 92.0351 145.297 92.8577C144.817 93.1319 144.748 93.3376 144.611 93.6118C144.611 94.9828 142.623 94.9142 142.555 93.6118Z" fill="black"/>
<path d="M126.24 81.9562C127.679 82.436 129.119 81.1336 128.845 79.5569C128.708 78.7343 128.365 77.9117 127.679 77.2947C125.623 75.4438 117.123 73.7986 111.982 76.1979C107.458 78.3915 119.659 79.7625 126.24 81.9562Z" fill="black"/>
<path d="M146.736 83.0534C145.57 83.4647 144.336 82.2308 144.542 80.7912C144.611 80.0372 144.885 79.2831 145.433 78.7347C147.079 77.0895 152.7 75.787 156.264 78.3234C159.349 80.4485 152.083 81.0654 146.736 83.0534Z" fill="black"/>
<path d="M133.294 130.991C133.358 133.087 130.246 138.422 124.275 135.945C118.496 133.595 116.781 122.543 125.038 127.815C129.229 130.61 131.897 131.054 133.294 130.991Z" fill="white"/>
<path d="M134.629 131.055C132.914 131.627 131.263 131.118 129.675 130.547C127.325 129.721 125.419 128.197 123.196 127.117C120.148 125.656 118.941 127.625 119.767 130.483C120.592 133.532 123.26 136.2 126.563 136.327C129.484 136.644 132.596 133.977 132.342 130.991C132.088 129.721 133.93 129.34 134.248 130.547C134.184 132.706 132.85 134.231 131.453 135.501C128.659 137.787 124.403 137.279 121.609 135.183C119.449 133.468 117.671 130.737 118.052 127.816C118.179 126.545 119.386 125.085 120.719 125.021C123.831 124.767 125.673 126.863 128.087 128.26C129.992 129.34 132.152 130.674 134.375 130.483C134.756 130.356 135.01 130.864 134.629 131.055Z" fill="black"/>
<path d="M119.893 128.701C120.909 130.162 122.497 130.924 124.148 131.305C124.529 131.432 124.847 131.432 125.165 131.432C125.736 131.432 126.308 131.877 126.625 132.195C128.15 133.401 130.246 133.592 132.151 133.655C132.596 133.655 132.596 134.418 132.151 134.354C130.119 134.227 127.959 134.036 126.054 133.084C125.673 132.957 125.482 132.83 125.165 132.83C123.958 132.957 123.005 132.195 122.116 131.686C121.1 131.115 120.083 130.543 118.877 130.289C118.305 130.162 117.987 129.654 118.051 129.082C118.178 128.193 119.448 127.939 119.893 128.701Z" fill="black"/>
<path d="M127.384 103.837C124.853 103.892 117.039 103.947 114.618 104.002C110.436 104.057 107.299 100.425 107.684 96.2982C107.739 94.9226 107.684 92.9966 107.739 91.621C107.849 88.0443 111.041 85.0179 114.618 85.1279L123.917 85.238C124.632 85.238 126.668 85.293 127.384 85.293C130.355 85.238 133.161 87.439 133.822 90.3554C134.042 91.1808 133.987 92.0612 133.987 92.7765V97.4538C133.932 100.92 130.85 103.892 127.384 103.837ZM127.384 102.626C130.245 102.736 132.886 100.26 132.941 97.3987C132.996 95.913 132.941 94.3173 132.941 92.7765C133.272 89.4199 130.74 86.3385 127.329 86.4485C124.963 86.5036 117.039 86.5586 114.563 86.6136C111.591 86.6136 109.06 89.3099 109.28 92.2813C109.28 92.6665 109.28 93.657 109.28 94.0421C109.335 95.2527 109.17 97.3437 109.445 98.4442C109.995 100.755 112.196 102.516 114.563 102.516H115.718C117.314 102.516 125.733 102.626 127.384 102.626Z" fill="black"/>
<path d="M149.558 86.7212L145.211 86.7762C144 86.8313 142.57 86.6112 141.524 87.3265C140.534 87.9868 140.094 89.1974 140.149 90.3529C140.149 91.7836 140.149 93.2693 140.094 94.7L140.039 94.4799C140.809 97.1762 141.854 99.7624 143.45 102.018L142.9 101.688C143.34 101.798 144.111 101.798 144.551 101.798C146.202 101.853 148.127 101.963 149.778 101.963C151.319 101.963 152.805 100.808 153.135 99.2672C153.245 98.827 153.245 98.0566 153.245 97.6164C153.245 95.2503 153.3 92.9392 153.19 90.573C153.3 88.4821 151.704 86.6112 149.558 86.7212ZM149.558 85.0704C152.475 85.0704 154.51 87.8768 154.015 90.6281C153.905 92.9942 153.96 95.3053 153.96 97.6714C154.235 100.423 152.585 102.899 149.723 103.119C148.513 103.174 147.357 103.174 146.202 103.229C145.596 103.229 144.111 103.339 143.56 103.339C143.285 103.394 142.845 103.339 142.57 103.339C142.35 103.339 142.13 103.174 142.02 103.009C140.314 100.478 139.103 97.6714 138.388 94.755C138.388 92.8841 138.223 91.0132 138.388 89.1424C138.718 86.9413 140.699 85.0704 142.955 85.0154C144.496 84.9604 148.017 85.0704 149.558 85.0704Z" fill="black"/>
<path d="M133.382 90.1302C134.868 89.4699 136.519 89.1948 138.169 89.3048C138.72 89.3599 139.27 89.5249 139.765 89.9651L140.48 90.5704C141.196 91.1757 140.315 92.2212 139.6 91.6159C138.72 90.8456 137.674 90.9556 136.629 91.0106C135.583 91.1207 134.593 91.3408 133.602 91.726C132.667 92.1112 132.061 90.7355 132.942 90.2953L133.382 90.1302Z" fill="black"/>
<path d="M108.619 92.1117C108.234 92.9921 107.794 93.1022 107.079 93.0472L105.483 93.1022C102.291 93.1022 99.0449 93.0472 95.8534 92.5519C94.7529 92.4969 94.6979 90.9562 95.7984 90.9011L108.564 90.4609C108.95 90.4609 109.225 90.8461 109.06 91.1763L108.619 92.1117Z" fill="black"/>
</svg>
