<svg width="202" height="194" viewBox="0 0 202 194" fill="none" xmlns="http://www.w3.org/2000/svg">
<g clip-path="url(#clip0_347_514)">
<path fill-rule="evenodd" clip-rule="evenodd" d="M74.9895 140.234C93.6659 122.3 138.127 77.7301 138.127 77.7301C138.515 77.3305 139.155 77.3247 139.552 77.7128C139.952 78.1009 139.961 78.7392 139.572 79.1359C139.572 79.1359 94.8237 125.899 76.9075 143.666C73.7713 146.774 71.4385 149.002 70.298 149.974C69.5464 150.612 68.9761 150.854 68.7774 150.906C67.5938 151.207 66.9458 150.604 66.58 150.034C66.3698 149.707 66.1423 149.178 66.3439 148.41C66.5771 147.533 70.0158 140.771 74.4653 132.385C80.3606 121.271 87.9982 107.195 91.6932 100.405L72.5646 103.167C71.6747 103.297 70.7934 102.891 70.3153 102.135C69.8344 101.379 69.843 100.41 70.3413 99.6628L111.64 38.4155C112.098 37.7255 112.97 37.4408 113.748 37.7283C114.525 38.0158 115.003 38.7978 114.9 39.6201L109.932 76.4967L140.269 73.2941C140.822 73.228 141.323 73.6247 141.39 74.1767C141.453 74.7286 141.058 75.2289 140.505 75.295L108.486 79.432C108.063 79.4809 107.642 79.3343 107.34 79.0324C107.04 78.7306 106.896 78.308 106.948 77.8882L110.505 46.6636L76.9046 97.9408L95.5667 95.2153C96.4307 95.0917 97.2889 95.4626 97.7843 96.1785C98.2797 96.8915 98.3286 97.8258 97.911 98.5876C97.911 98.5876 86.4315 119.267 78.1833 134.378C77.0429 136.465 75.9658 138.44 74.9895 140.234Z" fill="black"/>
<path fill-rule="evenodd" clip-rule="evenodd" d="M183.206 25.0029C183.659 24.678 184.289 24.7787 184.618 25.23C184.943 25.6814 184.842 26.3111 184.39 26.6359C184.39 26.6359 181.274 29.5827 177.069 33.1677C176.116 33.9842 175.097 34.8122 174.04 35.6401C173.363 36.172 172.677 36.7097 171.963 37.2099C170.137 38.4864 168.251 39.6679 166.491 40.7489C161.788 43.6382 158.018 45.6881 158.018 45.6881C157.569 46.0158 156.936 45.9152 156.61 45.4638C156.282 45.0124 156.386 44.3828 156.835 44.055C156.835 44.055 159.965 41.1227 164.184 37.5664C165.763 36.2382 167.476 34.8179 169.265 33.4839C169.962 32.9636 170.687 32.4806 171.404 32.0063C172.525 31.2617 173.631 30.5573 174.705 29.9047C179.431 27.0412 183.206 25.0029 183.206 25.0029Z" fill="black"/>
<path fill-rule="evenodd" clip-rule="evenodd" d="M196.407 70.2219C196.949 70.0954 197.493 70.4318 197.622 70.9723C197.749 71.5128 197.415 72.0562 196.871 72.1827C196.871 72.1827 193.268 73.6115 188.516 75.1898C187.436 75.5492 186.301 75.8913 185.132 76.2248C184.383 76.4347 183.626 76.6503 182.857 76.8171C180.884 77.2483 178.9 77.5645 177.054 77.8434C172.106 78.5851 168.244 78.9387 168.244 78.9387C167.703 79.0652 167.158 78.7317 167.032 78.1912C166.902 77.6479 167.239 77.1045 167.78 76.978C167.78 76.978 171.392 75.5664 176.15 74.0197C177.924 73.4447 179.842 72.841 181.797 72.3437C182.56 72.1511 183.335 72.0016 184.098 71.8578C185.293 71.6307 186.463 71.4323 187.589 71.2685C192.545 70.5583 196.407 70.2219 196.407 70.2219Z" fill="black"/>
<path fill-rule="evenodd" clip-rule="evenodd" d="M169.093 110.054C168.555 109.916 168.229 109.367 168.368 108.829C168.506 108.292 169.056 107.964 169.595 108.102C169.595 108.102 173.871 108.616 179.34 109.554C180.582 109.769 181.875 110.022 183.194 110.304C184.04 110.485 184.896 110.669 185.74 110.899C187.9 111.486 190.022 112.181 191.986 112.84C197.236 114.608 201.242 116.195 201.242 116.195C201.781 116.333 202.106 116.882 201.968 117.419C201.83 117.96 201.28 118.285 200.741 118.147C200.741 118.147 196.465 117.615 191.01 116.646C188.968 116.281 186.774 115.873 184.596 115.352C183.747 115.148 182.906 114.898 182.079 114.651C180.786 114.266 179.53 113.866 178.338 113.458C173.091 111.658 169.093 110.054 169.093 110.054Z" fill="black"/>
<path fill-rule="evenodd" clip-rule="evenodd" d="M151.412 140.7C150.969 140.364 150.885 139.731 151.222 139.288C151.559 138.846 152.193 138.759 152.636 139.096C152.636 139.096 156.253 141.143 160.775 144.015C161.803 144.67 162.857 145.377 163.926 146.122C164.611 146.599 165.302 147.082 165.968 147.603C167.667 148.937 169.288 150.354 170.783 151.682C174.78 155.236 177.732 158.162 177.732 158.162C178.173 158.499 178.259 159.131 177.922 159.574C177.585 160.017 176.952 160.103 176.508 159.766C176.508 159.766 172.897 157.708 168.398 154.807C166.719 153.723 164.919 152.542 163.177 151.26C162.497 150.762 161.846 150.225 161.204 149.693C160.202 148.862 159.234 148.037 158.33 147.22C154.35 143.638 151.412 140.7 151.412 140.7Z" fill="black"/>
<path fill-rule="evenodd" clip-rule="evenodd" d="M121.449 159.37C121.224 158.861 121.458 158.263 121.967 158.039C122.474 157.815 123.073 158.045 123.298 158.556C123.298 158.556 125.227 161.532 127.485 165.531C127.995 166.437 128.502 167.397 129 168.392C129.32 169.027 129.642 169.674 129.922 170.338C130.636 172.04 131.244 173.776 131.791 175.395C133.259 179.736 134.178 183.163 134.178 183.163C134.403 183.672 134.172 184.267 133.663 184.491C133.153 184.715 132.557 184.485 132.332 183.977C132.332 183.977 130.417 180.989 128.191 176.982C127.361 175.487 126.486 173.868 125.708 172.195C125.406 171.54 125.144 170.867 124.887 170.203C124.487 169.165 124.119 168.147 123.793 167.158C122.353 162.797 121.449 159.37 121.449 159.37Z" fill="black"/>
<path fill-rule="evenodd" clip-rule="evenodd" d="M81.2805 165.378C81.2863 164.823 81.7442 164.377 82.3029 164.383C82.8588 164.389 83.3051 164.846 83.2994 165.401C83.2994 165.401 83.8178 169.003 84.2066 173.695C84.2959 174.759 84.3563 175.868 84.3967 177.01C84.4226 177.74 84.4485 178.479 84.4255 179.218C84.3679 181.112 84.1979 182.989 84.0223 184.734C83.5557 189.412 82.9653 193.003 82.9653 193.003C82.9596 193.558 82.5017 194.003 81.9429 193.997C81.3871 193.992 80.9407 193.535 80.9465 192.977C80.9465 192.977 80.4454 189.375 80.0883 184.686C79.9558 182.938 79.832 181.057 79.8204 179.163C79.8176 178.424 79.8607 177.685 79.9039 176.955C79.9701 175.816 80.0566 174.707 80.1718 173.646C80.6758 168.965 81.2805 165.378 81.2805 165.378Z" fill="black"/>
<path fill-rule="evenodd" clip-rule="evenodd" d="M46.7105 154.928C47.1051 154.534 47.7444 154.534 48.139 154.928C48.5306 155.319 48.5306 155.957 48.139 156.351C48.139 156.351 45.9445 159.333 42.8883 163.015C42.1948 163.852 41.4477 164.703 40.6652 165.56C40.1638 166.109 39.6561 166.664 39.1144 167.187C37.7271 168.524 36.2678 169.771 34.9019 170.916C31.2397 173.989 28.2619 176.194 28.2619 176.194C27.8679 176.588 27.2282 176.588 26.8345 176.194C26.4406 175.8 26.4406 175.162 26.8345 174.768C26.8345 174.768 29.0412 171.795 32.1201 168.138C33.2684 166.776 34.5182 165.321 35.858 163.935C36.381 163.395 36.9371 162.886 37.4872 162.386C38.3454 161.607 39.1976 160.859 40.0345 160.166C43.7237 157.116 46.7105 154.928 46.7105 154.928Z" fill="black"/>
<path fill-rule="evenodd" clip-rule="evenodd" d="M28.0653 125.778C28.5169 125.45 29.1484 125.554 29.4747 126.002C29.801 126.453 29.6997 127.083 29.2481 127.411C29.2481 127.411 27.1901 129.584 24.309 132.215C23.6587 132.81 22.9623 133.405 22.2317 133.997C21.7642 134.377 21.2908 134.762 20.7894 135.107C19.503 135.995 18.1623 136.78 16.9064 137.496C13.523 139.428 10.8156 140.713 10.8156 140.713C10.364 141.038 9.73239 140.934 9.40609 140.486C9.07979 140.035 9.1812 139.405 9.63277 139.077C9.63277 139.077 11.7037 136.915 14.6015 134.313C15.6772 133.347 16.8445 132.324 18.0914 131.381C18.5776 131.016 19.0911 130.685 19.5986 130.363C20.3923 129.854 21.1756 129.383 21.9449 128.952C25.3521 127.046 28.0653 125.778 28.0653 125.778Z" fill="black"/>
<path fill-rule="evenodd" clip-rule="evenodd" d="M25.5628 86.1271C26.12 86.1357 26.5662 86.5928 26.5587 87.1505C26.5509 87.7054 26.0927 88.1511 25.5354 88.1424C25.5354 88.1424 22.343 88.6599 18.1599 89.0509C17.2139 89.1371 16.2266 89.2004 15.212 89.2377C14.5625 89.2636 13.9054 89.2895 13.2482 89.2665C11.5634 89.2119 9.89471 89.0422 8.34472 88.8669C4.17717 88.3983 0.995983 87.8118 0.995983 87.8118C0.438712 87.8032 -0.00739498 87.346 9.29001e-05 86.7883C0.00786878 86.2334 0.466063 85.7878 1.02333 85.7965C1.02333 85.7965 4.21952 85.2962 8.39801 84.9397C9.95232 84.8075 11.625 84.681 13.3106 84.6724C13.9681 84.6666 14.6245 84.7098 15.2731 84.7529C16.2862 84.819 17.2711 84.9081 18.2146 85.0202C22.3856 85.5262 25.5628 86.1271 25.5628 86.1271Z" fill="black"/>
<path fill-rule="evenodd" clip-rule="evenodd" d="M35.8859 51.5707C36.4282 51.6972 36.7646 52.2405 36.6367 52.7839C36.5088 53.3244 35.9648 53.6607 35.4228 53.5313C35.4228 53.5313 31.4827 53.1807 26.4302 52.4504C25.2828 52.2837 24.0902 52.0795 22.8731 51.8495C22.0929 51.7001 21.3033 51.5506 20.5242 51.3522C18.5293 50.8491 16.5724 50.2367 14.7607 49.6531C9.90852 48.0891 6.21924 46.6603 6.21924 46.6603C5.67723 46.5338 5.34066 45.9904 5.46853 45.4471C5.5964 44.9066 6.14037 44.5702 6.68266 44.6996C6.68266 44.6996 10.6222 45.0647 15.6635 45.8295C17.5458 46.1141 19.5707 46.4389 21.5809 46.8788C22.366 47.0484 23.1398 47.2669 23.9044 47.4826C25.097 47.8189 26.2554 48.1668 27.3564 48.529C32.2039 50.1275 35.8859 51.5707 35.8859 51.5707Z" fill="black"/>
<path fill-rule="evenodd" clip-rule="evenodd" d="M56.1679 31.3707C56.5423 31.7818 56.5078 32.42 56.0959 32.7937C55.6812 33.1646 55.0419 33.133 54.6704 32.719C54.6704 32.719 51.92 30.5139 48.5418 27.4406C47.7758 26.7449 46.9981 25.9974 46.2177 25.2154C45.7194 24.7123 45.2126 24.2035 44.7432 23.663C43.5371 22.2801 42.4251 20.8283 41.405 19.4713C38.6679 15.8288 36.7363 12.8791 36.7363 12.8791C36.3631 12.4651 36.396 11.8269 36.8098 11.456C37.2234 11.0823 37.8621 11.1139 38.2354 11.5279C38.2354 11.5279 40.9759 13.7474 44.3256 16.8408C45.5755 17.9907 46.906 19.2442 48.1616 20.5839C48.6512 21.1072 49.1063 21.662 49.5556 22.2082C50.2554 23.065 50.9207 23.9102 51.537 24.7439C54.2499 28.4124 56.1679 31.3707 56.1679 31.3707Z" fill="black"/>
<path fill-rule="evenodd" clip-rule="evenodd" d="M87.7411 26.0134C87.7641 26.5682 87.3322 27.0398 86.7763 27.0656C86.2205 27.0886 85.7482 26.6574 85.7252 26.1025C85.7252 26.1025 85.0196 22.874 84.3831 18.6306C84.2391 17.6703 84.121 16.667 84.0202 15.6349C83.9569 14.9737 83.8935 14.3067 83.8762 13.634C83.833 11.9119 83.9051 10.1985 83.9886 8.60862C84.2132 4.3336 84.6135 1.05043 84.6135 1.05043C84.5876 0.495565 85.0196 0.0241056 85.5783 0.00110623C86.1341 -0.0247681 86.6064 0.406426 86.6295 0.961286C86.6295 0.961286 87.3178 4.19558 87.9197 8.43609C88.1443 10.0116 88.3661 11.7106 88.4784 13.4298C88.5187 14.0997 88.5158 14.7724 88.51 15.4365C88.5014 16.4743 88.4726 17.4835 88.415 18.4524C88.1558 22.736 87.7411 26.0134 87.7411 26.0134Z" fill="black"/>
<path fill-rule="evenodd" clip-rule="evenodd" d="M124.066 28.1427C123.83 28.6487 123.231 28.8643 122.724 28.6286C122.22 28.3928 122.004 27.792 122.24 27.2889C122.24 27.2889 123.234 23.8476 124.789 19.4805C125.143 18.4887 125.541 17.4681 125.97 16.4303C126.243 15.7633 126.52 15.0905 126.842 14.4379C127.666 12.7618 128.585 11.149 129.454 9.65695C131.787 5.65793 133.786 2.68238 133.786 2.68238C134.022 2.17926 134.624 1.96079 135.131 2.19653C135.635 2.43227 135.851 3.03311 135.615 3.53622C135.615 3.53622 134.604 6.97469 133.017 11.3244C132.427 12.9459 131.773 14.6852 131.013 16.3871C130.716 17.0512 130.376 17.6952 130.039 18.3335C129.512 19.3253 128.982 20.2855 128.444 21.1882C126.079 25.1786 124.066 28.1427 124.066 28.1427Z" fill="black"/>
</g>
<defs>
<clipPath id="clip0_347_514">
<rect width="202" height="194" fill="white"/>
</clipPath>
</defs>
</svg>
