<svg width="159" height="143" viewBox="0 0 159 143" fill="none" xmlns="http://www.w3.org/2000/svg">
<g clip-path="url(#clip0_347_560)">
<path fill-rule="evenodd" clip-rule="evenodd" d="M74.9701 69.7857L136.862 98.1194C137.606 98.4685 137.934 99.3392 137.602 100.086C132.06 112.787 122.885 123.574 111.385 131.145C100.153 138.542 86.6968 142.866 72.2291 142.945C52.3549 143.024 34.3118 135.074 21.2372 122.152C8.13621 109.203 0.0377401 91.2622 0 71.4597C0.0415286 51.6611 8.14377 33.7241 21.2448 20.779C34.3193 7.86385 52.3587 -0.0819312 72.2291 0.000637306C88.0032 0.0832058 102.577 5.21027 114.375 13.8654C126.4 22.6856 135.552 35.1541 140.162 49.6155C140.283 49.9909 140.249 50.4 140.064 50.749C139.875 51.0981 139.558 51.357 139.176 51.4697L74.9701 69.7857ZM71.7798 68.5997L136.873 49.1013C132.173 35.9498 123.512 24.6673 112.329 16.6578C101.044 8.58071 87.1839 3.8403 72.2291 3.91537C53.5102 3.99417 36.596 11.6246 24.3558 23.8716C12.1458 36.0811 4.58725 52.8997 4.62502 71.4597C4.59104 90.0198 12.1533 106.835 24.3633 119.044C36.6035 131.28 53.514 138.91 72.2291 138.982C85.938 139.06 98.7218 135.086 109.448 128.202C120.103 121.367 128.733 111.673 134.219 100.199L71.6364 70.4801C71.2551 70.3037 71.0209 69.9096 71.0549 69.4893C71.0851 69.0726 71.3758 68.7198 71.7798 68.5997Z" fill="black"/>
<path fill-rule="evenodd" clip-rule="evenodd" d="M104.192 9.62169C104.464 9.13582 105.08 8.95761 105.572 9.22786C106.06 9.49523 106.24 10.1076 105.968 10.5963C105.968 10.5963 95.9327 30.0252 87.0284 46.7488C81.3254 57.4666 76.0765 67.0574 74.538 69.8576C74.9776 71.4676 75.9782 75.1418 77.2565 80.0004C78.4913 84.6952 79.9894 90.494 81.5366 96.6004C86.4298 115.883 91.9158 138.181 91.9158 138.181C92.0633 138.718 91.7423 139.27 91.2044 139.417C90.6636 139.564 90.1054 139.247 89.9579 138.71C89.9579 138.71 83.3093 116.728 77.6903 97.6411C75.9088 91.5979 74.2402 85.8452 72.9128 81.1791C71.0359 74.5955 69.8357 70.1739 69.8357 70.1739C69.6767 69.5989 69.7519 68.9837 70.0411 68.4604C70.0411 68.4604 76.2703 57.3373 83.5118 44.8197C93.0032 28.4182 104.192 9.62169 104.192 9.62169Z" fill="black"/>
<path fill-rule="evenodd" clip-rule="evenodd" d="M154.111 52.7525C158.423 58.8963 159.707 67.1963 158.625 75.1081C157.488 83.434 153.683 91.2739 148.214 95.8595C147.601 96.354 146.748 96.4344 146.054 96.0607C146.054 96.0607 134.321 90.0837 122.658 83.9658C119.471 82.2925 116.293 80.5963 113.36 79.0151C105.566 74.8206 99.4846 71.4597 99.4846 71.4597C98.7153 71.0515 98.27 70.2207 98.3538 69.3582C98.4377 68.4957 99.0334 67.7684 99.8663 67.5125C99.8663 67.5125 109.794 64.5944 121.082 61.363C135.868 57.131 152.965 52.35 152.965 52.35C153.396 52.2178 153.862 52.3816 154.111 52.7525ZM152.824 54.5235C149.417 55.6706 134.928 60.5407 122.14 64.764C115.865 66.8369 110 68.7487 106.075 70.0223C108.554 71.3132 111.865 73.041 115.538 74.9816C118.485 76.5369 121.663 78.2274 124.827 79.9437C134.223 85.0352 143.569 90.2131 146.756 91.9869C151.248 87.9821 154.38 81.5048 155.615 74.6366C156.87 67.662 156.19 60.2705 152.824 54.5235Z" fill="black"/>
<path fill-rule="evenodd" clip-rule="evenodd" d="M135.655 43.3172C136.008 42.886 136.647 42.8199 137.081 43.1707C137.514 43.5214 137.581 44.1568 137.228 44.588C137.228 44.588 136.757 46.0197 135.823 47.9028C135.62 48.3082 135.392 48.7078 135.126 49.1161C134.961 49.3748 134.79 49.6335 134.585 49.8664C134.05 50.4672 133.445 50.9732 132.864 51.439C131.236 52.7499 129.929 53.5147 129.929 53.5147C129.576 53.946 128.937 54.0121 128.503 53.6614C128.069 53.3106 128.003 52.6752 128.356 52.244C128.356 52.244 128.841 50.8123 129.799 48.9637C130.14 48.3024 130.516 47.6096 130.999 46.9656C131.184 46.7184 131.404 46.4998 131.624 46.2871C131.973 45.945 132.318 45.6402 132.679 45.3614C134.339 44.0676 135.655 43.3172 135.655 43.3172Z" fill="black"/>
<path fill-rule="evenodd" clip-rule="evenodd" d="M133.376 38.5736C133.728 38.1432 134.366 38.0783 134.8 38.429C135.237 38.7792 135.301 39.4137 134.949 39.8441C134.949 39.8441 133.691 42.2661 131.801 45.2924C131.376 45.9727 130.907 46.6642 130.404 47.3615C130.086 47.8071 129.761 48.2574 129.401 48.6788C128.472 49.7601 127.466 50.7571 126.515 51.6747C123.952 54.1508 121.834 55.8802 121.834 55.8802C121.482 56.3143 120.843 56.3791 120.409 56.0283C119.976 55.6776 119.909 55.0401 120.261 54.6097C120.261 54.6097 121.534 52.1992 123.449 49.1963C124.16 48.0864 124.935 46.9026 125.812 45.778C126.152 45.3391 126.529 44.9321 126.902 44.5293C127.489 43.9013 128.071 43.302 128.654 42.7513C131.251 40.2904 133.376 38.5736 133.376 38.5736Z" fill="black"/>
<path fill-rule="evenodd" clip-rule="evenodd" d="M130.827 34.1528C131.182 33.7198 131.817 33.6575 132.254 34.0069C132.688 34.3577 132.754 34.9946 132.401 35.4231C132.401 35.4231 130.402 38.7553 127.586 42.9045C126.946 43.8492 126.254 44.8118 125.526 45.7868C125.058 46.4143 124.585 47.0479 124.079 47.6477C122.771 49.1902 121.383 50.6538 120.085 52.0008C116.597 55.6106 113.738 58.2429 113.738 58.2429C113.387 58.6746 112.747 58.7428 112.313 58.392C111.875 58.0425 111.813 57.4043 112.164 56.9726C112.164 56.9726 114.177 53.6519 117.019 49.5222C118.077 47.9834 119.233 46.3375 120.49 44.7467C120.976 44.1291 121.505 43.538 122.023 42.9587C122.836 42.0488 123.645 41.1774 124.443 40.3626C127.956 36.777 130.827 34.1528 130.827 34.1528Z" fill="black"/>
<path fill-rule="evenodd" clip-rule="evenodd" d="M128.043 30.0379C128.393 29.6054 129.037 29.5364 129.469 29.8926C129.904 30.2382 129.967 30.8755 129.612 31.3099C129.612 31.3099 126.912 35.5055 123.212 40.7328C122.366 41.9276 121.459 43.1534 120.512 44.3969C119.904 45.1946 119.291 45.9996 118.638 46.7772C116.973 48.7602 115.218 50.6719 113.583 52.4247C109.218 57.1144 105.648 60.6135 105.648 60.6135C105.294 61.048 104.657 61.1097 104.223 60.7588C103.789 60.4079 103.72 59.7779 104.075 59.3434C104.075 59.3434 106.789 55.1592 110.516 49.9513C111.914 47.9963 113.436 45.9032 115.049 43.8762C115.68 43.0859 116.352 42.3177 117.009 41.5693C118.041 40.3905 119.063 39.2607 120.065 38.1926C124.464 33.5237 128.043 30.0379 128.043 30.0379Z" fill="black"/>
<path fill-rule="evenodd" clip-rule="evenodd" d="M125.02 26.1916C125.375 25.7603 126.012 25.6935 126.443 26.0506C126.881 26.3988 126.949 27.0302 126.594 27.4615C126.594 27.4615 123.219 32.481 118.668 38.75C117.625 40.1858 116.513 41.663 115.363 43.1558C114.618 44.1186 113.868 45.0939 113.076 46.0388C111.065 48.4465 108.966 50.7768 107.01 52.9269C101.793 58.6582 97.5506 62.976 97.5506 62.976C97.1936 63.4135 96.5593 63.4741 96.1257 63.1232C95.692 62.7723 95.6223 62.1374 95.9766 61.7061C95.9766 61.7061 99.3663 56.6979 103.945 50.4479C105.66 48.1069 107.527 45.5898 109.492 43.135C110.26 42.1745 111.063 41.2471 111.859 40.3286C113.095 38.9 114.324 37.513 115.525 36.2076C120.766 30.5015 125.02 26.1916 125.02 26.1916Z" fill="black"/>
<path fill-rule="evenodd" clip-rule="evenodd" d="M121.789 22.6138C122.137 22.186 122.781 22.1151 123.215 22.4661C123.648 22.817 123.711 23.4557 123.363 23.8836C123.363 23.8836 119.339 29.6929 113.974 36.9564C112.75 38.6184 111.441 40.3345 110.088 42.076C109.214 43.1957 108.334 44.329 107.413 45.4322C105.068 48.2485 102.635 50.9869 100.372 53.5094C94.3421 60.2352 89.4538 65.3463 89.4538 65.3463C89.1051 65.7741 88.4612 65.845 88.0308 65.4873C87.5972 65.1363 87.531 64.5044 87.8797 64.0765C87.8797 64.0765 91.9154 58.2748 97.3075 51.0303C99.329 48.317 101.53 45.3919 103.83 42.5279C104.726 41.4095 105.659 40.3243 106.584 39.2491C108.023 37.5715 109.449 35.9453 110.832 34.4138C116.886 27.7137 121.789 22.6138 121.789 22.6138Z" fill="black"/>
<path fill-rule="evenodd" clip-rule="evenodd" d="M118.334 19.3066C118.694 18.8669 119.329 18.8054 119.762 19.1564C120.202 19.5032 120.264 20.1443 119.909 20.5759C119.909 20.5759 115.278 27.1314 109.13 35.3506C107.728 37.2262 106.228 39.1776 104.681 41.1547C103.693 42.4182 102.683 43.7064 101.644 44.9564C98.9782 48.1637 96.2325 51.2878 93.6656 54.1823C86.8633 61.8514 81.3612 67.713 81.3612 67.713C81.0013 68.1527 80.3666 68.2142 79.9331 67.8632C79.4995 67.5122 79.4313 66.8753 79.7869 66.4437C79.7869 66.4437 84.4365 59.8913 90.6011 51.7029C92.9259 48.6183 95.4402 45.3075 98.0514 42.0632C99.0716 40.7943 100.132 39.5512 101.177 38.3286C102.81 36.4145 104.423 34.5605 105.988 32.8076C112.824 25.1527 118.334 19.3066 118.334 19.3066Z" fill="black"/>
<path fill-rule="evenodd" clip-rule="evenodd" d="M114.69 16.2333C115.039 15.8041 115.684 15.7315 116.118 16.0825C116.552 16.4335 116.613 17.0737 116.264 17.5028C116.264 17.5028 110.999 24.8352 104.05 34.0356C102.46 36.1377 100.769 38.3244 99.028 40.5383C97.9074 41.9593 96.7731 43.3995 95.6049 44.8098C92.6108 48.4161 89.5323 51.9477 86.6739 55.1996C79.0603 63.8624 72.9278 70.4927 72.9278 70.4927C72.5723 70.9257 71.9368 70.9869 71.4993 70.6435C71.0696 70.2849 71.0041 69.6525 71.3536 69.2233C71.3536 69.2233 76.6374 61.8944 83.6094 52.7202C86.2258 49.278 89.0789 45.5559 92.0124 41.9163C93.1615 40.4873 94.3526 39.0881 95.5277 37.7042C97.3511 35.5614 99.1554 33.4717 100.901 31.4967C108.542 22.8525 114.69 16.2333 114.69 16.2333Z" fill="black"/>
<path fill-rule="evenodd" clip-rule="evenodd" d="M110.836 13.4124C111.187 12.9778 111.828 12.9145 112.261 13.2654C112.695 13.6163 112.758 14.2536 112.409 14.6824C112.409 14.6824 109.277 19.403 105.035 25.2929C104.065 26.6392 103.026 28.0288 101.946 29.4343C101.254 30.3359 100.554 31.2458 99.8155 32.1287C97.9263 34.3825 95.9518 36.5626 94.1114 38.5693C89.2044 43.9215 85.2067 47.9438 85.2067 47.9438C84.8533 48.375 84.2148 48.4417 83.7811 48.0908C83.3475 47.7399 83.2794 47.1051 83.6328 46.6738C83.6328 46.6738 86.7778 41.961 91.0465 36.0903C92.6457 33.8925 94.3887 31.5257 96.2268 29.2276C96.946 28.3266 97.7016 27.4584 98.4451 26.6011C99.6079 25.2658 100.761 23.9725 101.892 22.7505C106.823 17.4234 110.836 13.4124 110.836 13.4124Z" fill="black"/>
<path fill-rule="evenodd" clip-rule="evenodd" d="M106.768 10.8574C107.124 10.4224 107.761 10.3602 108.195 10.7111C108.628 11.062 108.698 11.6924 108.342 12.1274C108.342 12.1274 107.492 14.0433 106.1 16.4657C105.787 17.0102 105.442 17.5475 105.06 18.0991C104.823 18.4449 104.574 18.8018 104.299 19.1207C103.57 19.957 102.773 20.6966 102.01 21.3865C99.9408 23.2539 98.2331 24.4914 98.2331 24.4914C97.8796 24.9204 97.2405 24.9886 96.8068 24.6377C96.3757 24.2808 96.3057 23.6505 96.6617 23.2155C96.6617 23.2155 97.5288 21.3048 98.9449 18.9076C99.4674 18.0265 100.037 17.0977 100.71 16.2196C100.971 15.88 101.266 15.5699 101.561 15.2693C102.024 14.7845 102.486 14.3376 102.953 13.9259C105.058 12.0726 106.768 10.8574 106.768 10.8574Z" fill="black"/>
</g>
<defs>
<clipPath id="clip0_347_560">
<rect width="159" height="143" fill="white"/>
</clipPath>
</defs>
</svg>
